<?xml version="1.0" standalone="no"?>
<!DOCTYPE svg PUBLIC "-//W3C//DTD SVG 20010904//EN"
 "http://www.w3.org/TR/2001/REC-SVG-20010904/DTD/svg10.dtd">
<svg version="1.0" xmlns="http://www.w3.org/2000/svg"
 width="233.000000pt" height="233.000000pt" viewBox="0 0 233.000000 233.000000"
 preserveAspectRatio="xMidYMid meet">
<metadata>
Created by potrace 1.11, written by Peter Selinger 2001-2013
</metadata>
<g transform="translate(0.000000,233.000000) scale(0.100000,-0.100000)"
fill="#000000" stroke="none">
<path d="M490 1775 c-109 -24 -221 -86 -304 -169 -60 -59 -82 -90 -119 -167
-50 -105 -65 -169 -65 -279 0 -279 190 -522 468 -599 165 -46 377 -8 515 92
71 52 153 148 194 226 187 363 -21 806 -420 897 -59 13 -207 13 -269 -1z"/>
<path d="M1750 1380 c-34 -17 -35 -20 -34 -74 0 -55 0 -56 -28 -56 -24 0 -28
-4 -28 -29 0 -25 4 -30 28 -33 l27 -3 1 -145 c0 -179 6 -212 40 -230 26 -14
108 -20 119 -8 4 4 3 19 -2 35 -7 19 -17 28 -31 28 -42 1 -47 18 -48 175 l0
150 38 0 c36 0 38 2 38 30 0 28 -2 30 -39 30 l-39 0 2 71 c0 39 -1 72 -4 74
-3 2 -21 -5 -40 -15z"/>
<path d="M1335 1241 c-52 -23 -75 -59 -75 -114 0 -35 6 -49 29 -71 23 -22 93
-52 166 -70 75 -19 92 -37 75 -80 -12 -31 -41 -47 -88 -48 -57 0 -91 18 -108
57 -12 30 -18 34 -44 31 -41 -5 -44 -9 -31 -49 23 -69 92 -107 183 -102 66 4
123 28 145 61 39 60 31 133 -18 168 -13 9 -68 30 -121 47 -105 32 -128 51
-108 89 24 45 119 49 156 6 12 -14 24 -30 26 -36 2 -8 16 -9 40 -5 36 7 36 7
26 38 -15 44 -27 58 -70 77 -53 23 -134 24 -183 1z"/>
<path d="M2025 1241 c-22 -10 -48 -27 -57 -37 -16 -19 -41 -74 -36 -79 2 -2
19 -5 38 -7 30 -2 37 1 48 25 7 15 25 33 40 40 24 12 40 13 108 9 32 -3 61
-33 66 -69 4 -32 -8 -45 -47 -49 -9 -1 -56 -8 -132 -19 -38 -6 -94 -37 -110
-61 -26 -41 -28 -98 -4 -137 47 -76 188 -85 274 -17 l25 20 5 -29 c5 -26 9
-28 44 -26 48 3 46 1 33 26 -7 12 -13 87 -14 177 -1 87 -8 169 -14 184 -17 41
-66 62 -152 65 -55 1 -85 -3 -115 -16z m208 -233 c5 -18 -12 -89 -26 -107 -18
-21 -88 -49 -117 -46 -14 1 -31 3 -37 4 -22 2 -53 40 -53 64 0 38 35 61 123
78 105 21 105 21 110 7z"/>
</g>
</svg>
