<?xml version="1.0" encoding="UTF-8" standalone="no"?>
<!DOCTYPE svg PUBLIC "-//W3C//DTD SVG 1.1//EN"
 "http://www.w3.org/Graphics/SVG/1.1/DTD/svg11.dtd">
<!-- Generated by graphviz version .. ()
 -->
<!-- Title: basic_dep Pages: 1 -->
<svg width="709pt" height="282pt"
 viewBox="0.00 0.00 708.81 281.99" xmlns="http://www.w3.org/2000/svg" xmlns:xlink="http://www.w3.org/1999/xlink">
<g id="graph0" class="graph" transform="scale(1 1) rotate(0) translate(4 277.99)">
<title>basic_dep</title>
<polygon fill="white" stroke="none" points="-4,4 -4,-277.99 704.81,-277.99 704.81,4 -4,4"/>
<!-- Orbital -->
<g id="node1" class="node">
<title>Orbital</title>
<ellipse fill="none" stroke="black" cx="543.78" cy="-255.99" rx="43.59" ry="18"/>
<text text-anchor="middle" x="543.78" y="-252.29" font-family="Times,serif" font-size="14.00">Orbital</text>
</g>
<!-- Atom -->
<g id="node2" class="node">
<title>Atom</title>
<ellipse fill="none" stroke="black" cx="665.71" cy="-87.17" rx="35.19" ry="18"/>
<text text-anchor="middle" x="665.71" y="-83.47" font-family="Times,serif" font-size="14.00">Atom</text>
</g>
<!-- Orbital&#45;&gt;Atom -->
<g id="edge1" class="edge">
<title>Orbital&#45;&gt;Atom</title>
<path fill="none" stroke="black" d="M556.37,-238.56C577.83,-208.84 621.64,-148.18 646.8,-113.35"/>
<polygon fill="black" stroke="black" points="649.47,-115.63 652.48,-105.48 643.79,-111.54 649.47,-115.63"/>
</g>
<!-- Sile -->
<g id="node3" class="node">
<title>Sile</title>
<ellipse fill="none" stroke="black" cx="285.14" cy="-172.66" rx="28.7" ry="18"/>
<text text-anchor="middle" x="285.14" y="-168.96" font-family="Times,serif" font-size="14.00">Sile</text>
</g>
<!-- Orbital&#45;&gt;Sile -->
<g id="edge2" class="edge">
<title>Orbital&#45;&gt;Sile</title>
<path fill="none" stroke="black" d="M508.89,-244.75C460.03,-229.01 371.61,-200.52 321.8,-184.48"/>
<polygon fill="black" stroke="black" points="322.94,-181.16 312.35,-181.43 320.79,-187.83 322.94,-181.16"/>
</g>
<!-- Atoms -->
<g id="node4" class="node">
<title>Atoms</title>
<ellipse fill="none" stroke="black" cx="437.38" cy="-18" rx="40.09" ry="18"/>
<text text-anchor="middle" x="437.38" y="-14.3" font-family="Times,serif" font-size="14.00">Atoms</text>
</g>
<!-- Atom&#45;&gt;Atoms -->
<g id="edge3" class="edge">
<title>Atom&#45;&gt;Atoms</title>
<path fill="none" stroke="black" d="M634.92,-77.84C595.53,-65.91 527.03,-45.16 481.95,-31.5"/>
<polygon fill="black" stroke="black" points="483.06,-28.18 472.47,-28.63 481.03,-34.88 483.06,-28.18"/>
</g>
<!-- Atoms&#45;&gt;Sile -->
<g id="edge4" class="edge">
<title>Atoms&#45;&gt;Sile</title>
<path fill="none" stroke="black" d="M420.8,-34.85C393.49,-62.59 339.01,-117.94 308.04,-149.4"/>
<polygon fill="black" stroke="black" points="305.92,-146.56 301.4,-156.14 310.91,-151.47 305.92,-146.56"/>
</g>
<!-- Geometry -->
<g id="node5" class="node">
<title>Geometry</title>
<ellipse fill="none" stroke="black" cx="200.08" cy="-36.87" rx="56.59" ry="18"/>
<text text-anchor="middle" x="200.08" y="-33.17" font-family="Times,serif" font-size="14.00">Geometry</text>
</g>
<!-- Atoms&#45;&gt;Geometry -->
<g id="edge5" class="edge">
<title>Atoms&#45;&gt;Geometry</title>
<path fill="none" stroke="black" d="M397.66,-21.16C362.01,-23.99 308.95,-28.21 266.79,-31.56"/>
<polygon fill="black" stroke="black" points="266.69,-28.06 257,-32.34 267.25,-35.04 266.69,-28.06"/>
</g>
<!-- Geometry&#45;&gt;Sile -->
<g id="edge9" class="edge">
<title>Geometry&#45;&gt;Sile</title>
<path fill="none" stroke="black" d="M211.37,-54.9C226.04,-78.32 251.75,-119.36 268.61,-146.28"/>
<polygon fill="black" stroke="black" points="265.52,-147.94 273.8,-154.56 271.46,-144.22 265.52,-147.94"/>
</g>
<!-- Grid -->
<g id="node7" class="node">
<title>Grid</title>
<ellipse fill="none" stroke="black" cx="86.55" cy="-224.49" rx="31.4" ry="18"/>
<text text-anchor="middle" x="86.55" y="-220.79" font-family="Times,serif" font-size="14.00">Grid</text>
</g>
<!-- Geometry&#45;&gt;Grid -->
<g id="edge10" class="edge">
<title>Geometry&#45;&gt;Grid</title>
<path fill="none" stroke="black" d="M189.19,-54.86C169.17,-87.95 126.4,-158.63 102.88,-197.49"/>
<polygon fill="black" stroke="black" points="100.03,-195.44 97.85,-205.81 106.02,-199.06 100.03,-195.44"/>
</g>
<!-- Lattice -->
<g id="node6" class="node">
<title>Lattice</title>
<ellipse fill="none" stroke="black" cx="42.9" cy="-86.51" rx="42.79" ry="18"/>
<text text-anchor="middle" x="42.9" y="-82.81" font-family="Times,serif" font-size="14.00">Lattice</text>
</g>
<!-- Lattice&#45;&gt;Sile -->
<g id="edge6" class="edge">
<title>Lattice&#45;&gt;Sile</title>
<path fill="none" stroke="black" d="M76.07,-98.31C121.32,-114.4 202.1,-143.13 248.9,-159.77"/>
<polygon fill="black" stroke="black" points="247.72,-163.07 258.32,-163.12 250.07,-156.47 247.72,-163.07"/>
</g>
<!-- Lattice&#45;&gt;Geometry -->
<g id="edge7" class="edge">
<title>Lattice&#45;&gt;Geometry</title>
<path fill="none" stroke="black" d="M77.39,-75.61C98.22,-69.03 125.16,-60.53 148.49,-53.16"/>
<polygon fill="black" stroke="black" points="149.33,-56.56 157.81,-50.21 147.23,-49.89 149.33,-56.56"/>
</g>
<!-- Lattice&#45;&gt;Grid -->
<g id="edge8" class="edge">
<title>Lattice&#45;&gt;Grid</title>
<path fill="none" stroke="black" d="M48.69,-104.83C56.04,-128.05 68.78,-168.34 77.43,-195.69"/>
<polygon fill="black" stroke="black" points="74.05,-196.61 80.41,-205.09 80.73,-194.5 74.05,-196.61"/>
</g>
<!-- Grid&#45;&gt;Sile -->
<g id="edge11" class="edge">
<title>Grid&#45;&gt;Sile</title>
<path fill="none" stroke="black" d="M115.42,-216.96C150.38,-207.83 209.32,-192.45 247.73,-182.43"/>
<polygon fill="black" stroke="black" points="248.2,-185.92 256.99,-180.01 246.43,-179.15 248.2,-185.92"/>
</g>
</g>
</svg>
